<svg width="86" height="35" viewBox="0 0 86 35" fill="none" xmlns="http://www.w3.org/2000/svg">
<path d="M4.54885 26.3186C4.54885 22.8186 4.24875 19.4186 4.14872 15.9186C4.14872 15.6186 4.14872 15.2186 4.14872 14.9186C4.14872 15.0186 4.24875 15.1186 4.24875 15.3186C4.74892 16.7186 5.34912 18.0186 6.04935 19.2186C6.74959 20.4186 7.14972 21.8186 7.54985 23.1186C7.34979 23.3186 7.24976 23.5186 7.34979 23.7186C7.34979 23.9186 7.44982 23.9186 7.54985 24.0186C8.05002 24.5186 9.05036 24.2186 9.65056 24.0186C9.85063 23.9186 10.1507 23.8186 10.3508 23.6186C10.6509 23.4186 11.051 23.0186 10.951 22.6186C10.951 22.5186 10.951 22.4186 10.851 22.4186C11.2511 21.3186 11.4512 20.2186 11.6512 19.1186C11.8513 17.9186 12.3515 16.8186 12.7516 15.6186C12.7516 16.1186 12.8516 16.6186 12.8516 17.2186C13.0517 19.3186 12.8516 21.5186 12.8516 23.6186C12.8516 24.3186 12.8516 25.0186 13.0517 25.7186C13.1517 26.0186 13.3518 27.2186 13.2518 27.3186C12.7516 27.8186 12.8516 28.4186 13.5519 28.5186C14.3521 28.7186 15.3525 28.4186 15.8526 27.9186C16.853 27.0186 16.3528 25.5186 16.1527 24.3186C15.7526 22.3186 16.2528 20.1186 16.1527 18.1186C16.0527 15.8186 15.7526 13.6186 15.7526 11.3186C15.7526 9.51856 16.0527 7.61856 15.4525 5.81856C15.4525 5.61856 15.5525 5.41856 15.5525 5.21856C15.7526 4.31856 12.7516 4.81856 12.3515 5.61856C12.0514 5.81856 11.9513 6.11856 12.0514 6.41856C12.0514 6.51856 12.1514 6.51856 12.1514 6.61856C11.5512 9.31856 10.851 11.9186 9.95066 14.5186C9.65056 15.5186 9.25043 16.5186 8.85029 17.5186C8.35012 16.6186 7.84996 15.6186 7.44982 14.7186C6.24942 11.8186 5.24909 8.91856 3.84862 6.11856C4.04868 4.81856 1.14771 4.91856 0.547507 6.11856C-0.152727 7.51856 -0.0526913 9.01856 0.147376 10.5186C0.447476 12.2186 0.447475 13.9186 0.447475 15.6186C0.447475 18.9186 0.747578 22.3186 0.847611 25.6186C0.547511 25.9186 0.447475 26.3186 0.747575 26.8186C0.847609 27.0186 1.04768 27.1186 1.24774 27.3186C2.44814 28.0186 4.54885 27.5186 4.54885 26.3186Z" fill="black"/>
<path d="M22.7549 7.91856C22.6549 7.31856 19.3538 8.01856 19.4538 8.81856C19.7539 10.6186 19.6539 12.4186 19.5539 14.2186C19.5539 15.9186 19.954 17.5186 20.1541 19.2186C20.3541 20.9186 20.054 22.7186 20.2541 24.4186C20.3541 25.2186 20.8543 26.7186 20.3541 27.4186C19.954 27.8186 21.5545 27.7186 21.6546 27.7186C22.2548 27.6186 23.1551 27.4186 23.5552 26.8186C24.1554 26.1186 23.7553 24.8186 23.5552 24.0186C23.2551 22.3186 23.4552 20.5186 23.3552 18.7186C23.2551 17.0186 22.7549 15.4186 22.6549 13.8186C22.955 11.8186 23.055 9.91856 22.7549 7.91856Z" fill="black"/>
<path d="M25.956 14.6186C26.8563 17.1186 30.5576 15.9186 32.5582 16.1186C35.7593 16.3186 34.859 20.7186 34.859 22.7186C34.859 23.8186 35.8593 25.6186 35.0591 26.5186C34.5589 27.1186 33.3585 27.1186 32.6583 27.1186C31.958 27.2186 30.7576 27.4186 30.3575 26.7186C29.5572 25.5186 30.4575 23.5186 30.2575 22.1186C30.1574 21.3186 26.8563 22.0186 26.9564 23.0186C27.2565 25.2186 25.7559 28.2186 28.957 28.6186C31.0577 28.8186 33.3585 28.5186 35.2591 27.8186C36.2595 27.5186 37.1598 27.0186 37.96 26.3186C38.8603 25.5186 38.5602 24.3186 38.3602 23.3186C37.76 20.8186 38.9604 18.0186 37.3598 15.8186C35.6593 13.5186 32.3582 15.1186 30.1574 14.5186C28.957 14.3186 28.957 12.7186 28.957 11.7186C28.957 10.5186 28.857 9.41856 28.757 8.21856C28.6569 7.31856 28.757 6.41856 29.3572 5.81856C29.4572 5.71856 30.0574 5.51856 30.0574 5.51856C30.3575 5.41856 30.6576 5.41856 30.9577 5.41856C32.2581 5.31856 34.859 5.61856 34.3588 7.51856C34.1588 8.41856 37.3598 7.91856 37.6599 7.01856C38.6603 3.11856 31.5579 3.91856 29.4572 4.41856C27.5566 4.91856 25.5559 6.01856 25.4558 8.11856C25.3558 9.11856 25.6559 10.1186 25.7559 11.1186C25.7559 12.3186 25.4558 13.5186 25.956 14.6186Z" fill="black"/>
<path d="M40.3609 16.5186C40.2608 18.3186 40.1608 20.1186 40.1608 21.9186C40.1608 22.8186 40.2608 23.7186 40.4609 24.7186C40.5609 25.5186 40.861 26.7186 40.6609 27.5186C40.4609 28.1186 43.662 27.7186 43.9621 26.9186C44.4622 25.4186 43.762 23.5186 43.662 22.0186C43.5619 20.5186 43.662 19.1186 43.762 17.6186C45.4626 17.5186 47.1631 17.4186 48.8637 17.6186C48.9637 18.8186 49.0638 19.9186 49.1638 21.1186C49.2638 22.1186 49.3639 23.0186 49.3639 24.0186C49.3639 24.9186 49.4639 26.1186 49.1638 26.9186C48.4636 28.6186 51.8647 28.5186 52.2648 27.2186C52.865 25.6186 52.665 23.7186 52.5649 22.0186C52.2648 19.8186 51.9647 17.8186 51.9647 15.7186C51.8647 12.5186 51.3645 9.41856 51.3645 6.21856C51.3645 4.51856 48.0634 5.11856 48.0634 6.51856C48.0634 9.51856 48.4636 12.5186 48.6636 15.6186C48.6636 15.7186 48.6636 15.7186 48.6636 15.8186C47.0631 15.8186 45.3625 15.9186 43.762 16.0186C43.9621 12.1186 43.2618 8.21856 43.3619 4.31856C43.3619 3.81856 40.0607 4.21856 40.0607 5.21856C39.8607 9.01856 40.4609 12.7186 40.3609 16.5186Z" fill="black"/>
<path d="M54.4656 21.8186C54.1655 22.1186 54.2655 22.2186 54.4656 22.3186C54.4656 23.8186 54.4656 25.2186 54.2655 26.7186C53.8654 27.3186 54.6656 27.7186 55.1658 27.7186H55.2658C55.866 27.7186 57.4666 27.4186 57.5666 26.6186C57.7667 24.8186 57.7667 23.1186 57.7667 21.3186C59.0671 19.9186 60.1675 18.2186 61.1678 16.6186C61.768 17.8186 62.3682 19.1186 62.8684 20.5186C63.5686 22.8186 64.769 24.9186 65.4693 27.3186C65.9694 28.8186 69.2705 27.9186 68.7704 26.4186C68.0701 24.1186 66.8697 21.9186 66.1695 19.6186C65.3692 17.3186 64.1688 15.2186 63.1685 13.0186C63.9688 11.4186 64.8691 9.71856 65.6693 8.01856C66.3696 6.51856 66.8697 4.81856 68.2702 3.71856C68.7704 3.31856 68.7704 2.91856 68.0701 2.91856C67.3699 2.81856 66.3696 3.11856 65.7694 3.51856C64.4689 4.51856 63.7687 5.71856 63.0685 7.11856C62.2682 8.81856 61.4679 10.5186 60.5676 12.2186C60.4676 12.3186 60.4676 12.4186 60.3676 12.6186C59.9674 12.9186 59.6673 13.2186 59.8674 13.7186C59.1672 15.0186 58.567 16.3186 57.7667 17.6186C57.4666 12.9186 56.9664 8.31856 56.7663 3.61856C56.7663 2.51856 53.4652 3.21856 53.4652 4.51856C53.6653 10.2186 54.4656 16.0186 54.4656 21.8186Z" fill="black"/>
<path d="M85.9761 15.6186C85.7761 14.9186 84.7757 14.9186 84.0755 15.0186C84.0755 14.7186 84.0755 14.4186 84.0755 14.2186C83.9754 12.0186 83.9755 9.71856 83.7754 7.41856C83.5753 5.31856 82.4749 4.61856 80.4743 4.71856C78.4736 4.81856 76.0728 5.11856 74.1722 5.91856C71.9714 6.81856 70.771 8.41856 70.3709 10.7186C69.8707 13.2186 70.571 15.9186 70.671 18.5186C70.771 21.5186 70.771 24.4186 70.771 27.4186C70.771 27.9186 74.0721 27.4186 74.0721 26.5186C74.0721 24.2186 74.0721 21.8186 74.0721 19.5186C74.0721 18.8186 74.0721 18.1186 73.9721 17.4186C75.1725 16.9186 77.0731 17.4186 78.2735 17.5186C79.1738 17.6186 80.0741 17.4186 80.9744 17.3186C80.9744 19.2186 81.0745 21.2186 81.1745 23.2186C81.1745 24.2186 81.5746 26.2186 80.8744 27.0186C80.4743 27.4186 82.0748 27.3186 82.1748 27.3186C82.8751 27.2186 83.6753 27.0186 84.0755 26.4186C84.8757 25.5186 84.4756 23.2186 84.3756 22.1186C84.2756 20.5186 84.2756 18.9186 84.2756 17.3186C85.0758 16.9186 86.1762 16.3186 85.9761 15.6186ZM79.3739 15.4186C77.4733 15.4186 75.5726 15.1186 73.672 15.4186C73.572 14.3186 73.4719 13.3186 73.3719 12.2186C73.2719 10.2186 73.4719 7.51856 75.2725 6.31856C75.7727 6.01856 76.673 6.01856 77.2732 5.91856C78.0735 5.81856 78.8737 5.61856 79.674 6.11856C80.6743 6.81856 80.4743 9.21856 80.4743 10.2186C80.4743 11.9186 80.6743 13.6186 80.7744 15.3186C80.2742 15.4186 79.774 15.4186 79.3739 15.4186Z" fill="black"/>
<path d="M19.1537 4.11856C19.1537 4.31856 19.1537 4.51856 19.2538 4.61856V4.71856C19.2538 4.81856 19.2538 4.91856 19.2538 5.01856C19.3538 5.21856 19.4538 5.31856 19.6539 5.41856C19.954 5.61856 20.3541 5.61856 20.7543 5.61856C21.1544 5.61856 21.6546 5.41856 21.9547 5.21856C22.0547 5.11856 22.0547 5.11856 22.1548 5.01856C22.5549 4.71856 22.955 4.31856 22.755 3.91856C22.3548 3.01856 22.3548 2.01856 22.4549 1.01856C22.4549 0.218559 21.6546 -0.0814409 20.9543 0.0185591C20.3541 0.118559 19.1537 0.518558 19.1537 1.31856C19.1537 2.11856 19.0537 3.01856 19.2538 3.81856C19.1537 3.91856 19.1537 4.01856 19.1537 4.11856Z" fill="black"/>
<path d="M80.6743 33.3186C79.0738 32.7186 77.3733 32.7186 75.7727 32.5186C74.1722 32.3186 72.5716 32.1186 70.8711 31.9186C69.2705 32.0186 67.57 31.9186 65.8694 32.0186L60.9678 32.3186C54.4656 32.6186 47.9634 32.6186 41.4612 32.4186C34.959 32.3186 28.4569 31.9186 21.8547 31.9186C18.5535 31.9186 15.2524 32.0186 11.9513 32.2186C10.3508 32.5186 8.75026 32.7186 7.04969 33.1186C5.44916 33.5186 3.94865 34.0186 2.24809 34.1186C3.84862 34.5186 5.54919 34.4186 7.24976 34.4186C8.8503 34.4186 10.4508 34.5186 12.1514 34.6186C15.3525 34.4186 18.6536 34.4186 21.8547 34.3186C28.3568 34.3186 34.859 34.6186 41.4612 34.8186C47.9634 34.9186 54.5656 35.0186 61.1678 34.7186L66.0695 34.4186C67.67 34.3186 69.2705 34.3186 70.8711 34.3186C72.4716 34.2186 74.1722 34.0186 75.7727 33.8186C77.4733 33.6186 78.9738 33.2186 80.6743 33.3186H80.7744V33.2186C80.7744 33.0186 80.7744 32.9186 80.7744 32.7186C80.7744 33.1186 80.7744 33.2186 80.6743 33.3186Z" fill="black"/>
</svg>
